PathFileType	4	(X/Y/Z)	C:\Users\WrightLab\Desktop\Jo\P1_boxCal10.trc
DataRate	CameraRate	NumFrames	NumMarkers	Units	OrigDataRate	OrigDataStartFrame	OrigNumFrames
100.00	100.00	       61	19	mm	100.00	1	       625
Frame#	Time	Headset_Front			Headset_Back			Headset_Left			Headset_Right			Left_Shoulder			Right_Shoulder			Sternum			C7			Left Elbow			Right Elbow			Left Wrist			Right Wrist			Left ASIS			Right ASIS			S2			Left Knee			Right Knee			Left Ankle			Right Ankle			
		X1	Y1	Z1	X2	Y2	Z2	X3	Y3	Z3	X4	Y4	Z4	X5	Y5	Z5	X6	Y6	Z6	X7	Y7	Z7	X8	Y8	Z8	X9	Y9	Z9	X10	Y10	Z10	X11	Y11	Z11	X12	Y12	Z12	X13	Y13	Z13	X14	Y14	Z14	X15	Y15	Z15	X16	Y16	Z16	X17	Y17	Z17	X18	Y18	Z18	X19	Y19	Z19	

1	0.000																															112.38390	731.62677	-1641.16309													-45.21984	412.67087	-1707.82825	-377.88657	48.39595	-1724.82214				-388.12247	409.31952	-1703.06921	
2	0.010																															112.41322	731.65619	-1641.18164													-45.06721	412.70505	-1707.59790	-377.17828	47.73292	-1727.88452				-388.05826	409.40720	-1702.72046	
3	0.020																															112.69370	731.30481	-1641.29224													-44.89654	412.58032	-1707.68884	-377.89133	48.42315	-1724.85693				-388.00272	409.55740	-1702.43481	
4	0.030																															112.71069	731.31213	-1641.28357													-44.71309	412.56436	-1707.62585	-377.90775	48.40589	-1724.94983				-387.93283	409.68552	-1702.06213	
5	0.040																															112.71172	731.21344	-1641.63171													-44.50222	412.65503	-1707.18311	-377.22586	47.65005	-1728.14575				-387.58527	408.76468	-1702.74231	
6	0.050																															112.82752	731.06342	-1641.98376													-44.48704	412.58356	-1707.10986	-377.19092	47.74070	-1727.96118				-387.55222	408.81976	-1702.56494	
7	0.060																															112.86552	730.92603	-1642.34619													-44.40678	412.55359	-1707.26135	-376.59662	47.64415	-1730.12463				-387.54758	408.79025	-1702.53223	
8	0.070																															112.91273	730.84241	-1642.58337													-44.36212	412.56717	-1707.25916	-376.57910	47.68475	-1730.03088				-387.44989	408.95416	-1702.00793	
9	0.080																															113.47830	731.02747	-1643.52942													-44.02234	412.39084	-1707.34473	-376.58017	47.67229	-1730.03406				-387.39523	408.98557	-1701.70203	
10	0.090																															113.51064	730.89801	-1643.85217													-43.96179	412.31848	-1707.44482	-377.18063	47.73964	-1727.90002				-386.19089	407.47833	-1706.00427	
11	0.100																															113.50173	730.86316	-1644.15381													-43.90285	412.33209	-1707.43774	-377.90891	48.36708	-1724.94714				-386.06543	407.57410	-1705.30566	
12	0.110																															113.51248	730.89166	-1644.19592													-43.87480	412.28815	-1707.38635	-377.93945	48.29000	-1725.10889				-385.97968	407.66983	-1704.83435	
13	0.120																															113.53283	730.89532	-1644.17542													-43.80030	412.21646	-1707.50305	-377.90213	48.37197	-1724.90833				-385.93326	407.74905	-1704.58521	
14	0.130																															114.01469	731.13733	-1645.17859													-43.43607	412.10590	-1707.52002	-377.91214	48.35540	-1724.96350				-385.88379	407.77994	-1704.30823	
15	0.140																															114.02341	731.12598	-1645.47485													-43.34089	412.09473	-1707.47693	-377.92108	48.32166	-1725.00806				-385.80093	407.89883	-1703.85852	
16	0.150																															114.10686	730.97626	-1645.90332													-43.22075	412.05484	-1707.62854	-377.94171	48.26881	-1725.11707				-385.74094	407.99448	-1703.53491	
17	0.160																															114.24564	730.94025	-1645.93250													-43.12583	412.03055	-1707.57288	-377.94458	48.27604	-1725.13586				-385.69888	408.01791	-1703.29871	
18	0.170																															114.32153	730.92761	-1645.91003													-43.06918	411.93558	-1707.46277	-377.90826	48.34618	-1724.93835				-385.62164	408.14090	-1702.88208	
19	0.180																															114.40949	730.85809	-1646.10889													-42.75612	411.74432	-1707.45862	-377.91373	48.34727	-1724.97095				-385.54453	408.17679	-1702.44739	
20	0.190																															114.51206	730.81207	-1646.17969													-42.10051	411.42886	-1707.47205	-377.91864	48.34147	-1724.99841				-385.47531	408.11102	-1702.03589	
21	0.200																															114.69290	730.73517	-1646.27686													-41.20234	411.31821	-1707.59070	-377.87430	48.47219	-1724.76831				-385.40521	408.14929	-1701.64160	
22	0.210																															115.67136	730.68451	-1647.19604													-40.95662	410.66443	-1707.43372	-377.85172	48.52345	-1724.64734				-385.13583	408.51807	-1700.17505	
23	0.220																															116.40032	730.69910	-1647.78662													-40.25909	410.62900	-1707.84314	-377.84454	48.54568	-1724.61047				-384.71329	409.13046	-1697.88171	
24	0.230																															116.87834	730.55865	-1647.90747													-40.14844	410.46759	-1707.80530	-377.81268	48.62463	-1724.44141				-384.40820	408.91241	-1693.84314	
25	0.240																															117.14531	730.50763	-1647.71521													-39.86613	409.76675	-1706.66907	-377.72559	48.82018	-1723.97424				-383.25482	408.79074	-1692.06042	
26	0.250																															117.26733	730.44452	-1647.60718													-39.07371	409.74780	-1706.27832	-377.71545	48.83673	-1723.91846				-382.85901	409.29324	-1687.65454	
27	0.260																															117.46898	730.43469	-1647.06177													-38.12862	409.84631	-1706.67651	-377.67615	48.88106	-1723.69690				-381.85150	408.30621	-1686.51807	
28	0.270																															118.47351	730.26129	-1647.59546													-37.35207	410.36191	-1707.34717	-377.69522	48.81255	-1723.79297				-381.69299	408.32098	-1685.61194	
29	0.280																															118.74874	730.28436	-1646.98267													-37.81775	410.63522	-1707.86389	-377.82498	47.89256	-1723.27246				-381.44202	408.45804	-1684.20007	
30	0.290																															119.03114	729.80646	-1645.93054													-37.29072	410.47165	-1708.10864	-377.89038	47.69883	-1723.61182				-380.66129	407.82404	-1684.65710	
31	0.300																															120.13348	729.51428	-1646.83594													-36.50290	409.59488	-1707.37732	-377.98804	46.84326	-1722.91541				-378.13882	408.51831	-1679.62549	
32	0.310																															120.45599	729.86627	-1647.33960													-35.66386	409.11206	-1707.57422	-377.96225	46.77568	-1722.74780				-376.18182	410.15070	-1671.59021	
33	0.320																															120.80721	729.74487	-1647.03943													-35.31974	409.14230	-1707.41272	-377.85187	46.92377	-1722.13232				-374.59058	409.16226	-1673.74426	
34	0.330																															122.21889	729.54907	-1647.53394													-34.61187	408.95621	-1707.09717	-377.83203	46.96814	-1722.02588				-371.46967	408.57904	-1671.53101	
35	0.340																															123.83519	729.02258	-1647.74255													-32.79007	408.68350	-1707.98962	-378.54779	47.76949	-1719.04712				-367.76593	410.30817	-1664.68372	
36	0.350																															124.33356	728.76447	-1647.40271													-32.48252	408.45071	-1708.21497	-378.60379	47.79841	-1719.38281				-364.24567	410.16556	-1662.73132	
37	0.360																															125.07415	728.22614	-1646.78162													-31.57163	408.34109	-1708.68127	-379.49075	53.23906	-1716.46826				-359.78879	411.68930	-1657.82507	
38	0.370																									87.31339	910.65485	-1743.28308				125.63786	728.23254	-1645.99609													-30.91702	408.79083	-1709.68945	-379.37173	53.63238	-1715.86401				-357.31097	411.69928	-1657.25879	
39	0.380																									88.78055	909.33081	-1740.58533				126.15067	727.94556	-1644.60754													-30.48061	408.60141	-1709.50476	-380.11932	55.43941	-1711.98633				-355.51190	414.87030	-1647.45264	
40	0.390																									89.45077	909.33594	-1739.58667				127.65844	727.96741	-1644.97937													-30.32937	408.39337	-1709.78320	-380.07101	55.88284	-1711.81177				-354.57016	416.53705	-1642.32080	
41	0.400																									89.74160	909.05920	-1737.80444				128.23961	728.06482	-1644.34070													-30.32596	408.26480	-1710.08691	-380.00003	56.69856	-1711.59167				-354.69324	418.27118	-1639.10876	
42	0.410																									90.35548	909.15356	-1736.62561				129.74338	727.92126	-1644.99963													-30.40233	408.25125	-1710.23083	-380.39545	59.15753	-1708.59949				-354.64557	419.83987	-1635.90857	
43	0.420																									90.98707	908.79321	-1735.00134				130.15247	727.95612	-1643.92322													-30.56635	408.32407	-1710.29553	-380.72189	61.09055	-1706.70715				-354.93552	421.43045	-1631.68311	
44	0.430																									91.77172	910.90692	-1736.97266				131.33705	727.89410	-1643.81848													-30.56635	408.32407	-1710.29553	-381.23044	62.88183	-1705.04065				-356.20093	424.02948	-1625.41174	
45	0.440																									92.30090	911.15631	-1735.81274				131.92914	728.28076	-1643.87085													-30.53540	408.52863	-1709.75952	-382.31885	67.70042	-1700.94885				-356.14371	425.71667	-1623.52441	
46	0.450																									92.75661	911.58722	-1735.01794				132.31657	728.33374	-1642.86121													-30.56245	408.77924	-1709.19788	-382.20618	68.30693	-1700.43726				-357.31592	428.58633	-1616.98389	
47	0.460																									93.29496	911.84686	-1733.70923				132.57933	728.14960	-1641.27637													-31.25568	408.20969	-1708.53369	-382.95804	70.30151	-1696.67004				-357.27353	428.81265	-1616.78601	
48	0.470																									93.68813	912.15503	-1732.65613				132.88354	728.15582	-1640.75659													-31.73209	407.69705	-1707.57532	-383.98428	73.96697	-1693.44312				-357.68909	429.76593	-1616.12061	
49	0.480																									94.17047	912.59546	-1731.29919				133.16327	728.35870	-1639.86572													-31.75992	407.13181	-1706.29041	-383.93881	74.66555	-1693.34265				-360.28287	433.91641	-1606.62170	
50	0.490																									94.64494	913.05182	-1730.01111				133.43756	728.09766	-1638.49622													-32.46700	406.71143	-1705.35425	-384.50046	77.29902	-1692.42224				-360.48416	433.77725	-1607.75330	
51	0.500																									95.29591	911.19739	-1725.35364				134.45287	728.50623	-1637.75659													-32.72074	406.86789	-1705.35083	-385.71533	80.73783	-1688.57751				-360.97842	434.77271	-1606.84167	
52	0.510																									96.09100	912.09424	-1724.34790				134.73636	728.72015	-1636.78418													-33.85084	407.21631	-1704.57129	-386.22437	80.66582	-1686.53906				-362.29828	436.81012	-1603.12085	
53	0.520																									96.45008	912.54205	-1722.81738				135.04614	728.94763	-1635.76160													-34.66423	407.31516	-1703.92285	-387.24313	82.02770	-1683.61353				-364.28995	440.62918	-1596.86304	
54	0.530																									96.79415	912.96088	-1721.13879				135.28535	729.38391	-1634.22693													-34.75088	407.46841	-1703.68323	-388.17288	80.80152	-1679.38452				-364.92096	441.63406	-1596.12317	
55	0.540																									96.71591	913.73547	-1719.51721				135.50208	729.72479	-1632.65833													-35.83932	406.45926	-1702.04089	-389.66025	82.61180	-1672.07666				-366.18164	442.33508	-1598.71411	
56	0.550																									96.94227	914.25256	-1717.77856				135.62102	729.95917	-1631.50623													-36.10671	406.78326	-1701.66003	-390.30151	80.93298	-1670.42920				-369.52298	443.18649	-1595.38708	
57	0.560																									96.71269	914.43707	-1715.45984				135.53040	729.88239	-1628.95447													-37.40430	405.79932	-1700.00000	-392.20996	78.91603	-1663.69897				-370.65466	442.82700	-1599.89929	
58	0.570																									96.92556	914.82013	-1713.19470				135.80704	730.08875	-1627.66382													-38.09409	406.38452	-1700.82507	-393.71439	78.98856	-1657.57605				-372.35486	444.77686	-1596.32532	
59	0.580																									96.86604	915.16498	-1711.45276				135.92747	730.42444	-1626.19824													-39.14006	407.06668	-1700.53320	-395.82471	75.52953	-1651.69897				-372.59100	444.56952	-1597.62781	
60	0.590																									96.86608	915.67944	-1709.27539				135.28868	729.86676	-1622.82178													-40.21890	407.64758	-1699.95935	-398.36200	76.13438	-1645.34668				-374.78583	447.57867	-1590.65015	
61	0.600																									96.30972	915.80591	-1706.87537				135.42966	730.20844	-1621.11292													-41.38600	407.42624	-1698.34729	-401.16373	73.92557	-1637.80164				-376.27386	447.59982	-1589.98730	
